<svg id="visual" viewBox="0 0 1200 320" width="1200" height="320" xmlns="http://www.w3.org/2000/svg" xmlns:xlink="http://www.w3.org/1999/xlink" version="1.1"><rect x="0" y="0" width="1200" height="320" fill="#000000"></rect><defs><linearGradient id="grad1_0" x1="73.3%" y1="0%" x2="100%" y2="100%"><stop offset="-25%" stop-color="#000000" stop-opacity="1"></stop><stop offset="125%" stop-color="#000000" stop-opacity="1"></stop></linearGradient></defs><defs><linearGradient id="grad2_0" x1="0%" y1="0%" x2="26.7%" y2="100%"><stop offset="-25%" stop-color="#000000" stop-opacity="1"></stop><stop offset="125%" stop-color="#000000" stop-opacity="1"></stop></linearGradient></defs><g transform="translate(1200, 0)"><path d="M0 240C-31.1 223.9 -62.2 207.8 -75.8 182.9C-89.3 158.1 -85.2 124.5 -111.7 111.7C-138.2 99 -195.3 107 -221.7 91.8C-248.2 76.7 -244.1 38.3 -240 0L0 0Z" fill="#3F3244"></path></g><g transform="translate(0, 320)"><path d="M0 -240C40.5 -245.7 81.1 -251.3 91.8 -221.7C102.6 -192.1 83.6 -127.3 103.9 -103.9C124.3 -80.6 184.2 -98.8 213.4 -88.4C242.7 -78 241.3 -39 240 0L0 0Z" fill="#3F3244"></path></g></svg>