<svg id="visual" viewBox="0 0 600 900" width="600" height="900" xmlns="http://www.w3.org/2000/svg" xmlns:xlink="http://www.w3.org/1999/xlink" version="1.1">
<rect x="0" y="0" width="600" height="900" fill="#000000"></rect>
<defs>
<linearGradient id="grad1_0" x1="0%" y1="100%" x2="100%" y2="0%">
<stop offset="30%" stop-color="#000000" stop-opacity="1"></stop>
<stop offset="70%" stop-color="#000000" stop-opacity="1"></stop>
</linearGradient>
</defs>
<defs>
<linearGradient id="grad2_0" x1="0%" y1="100%" x2="100%" y2="0%">
<stop offset="30%" stop-color="#000000" stop-opacity="1"></stop>
<stop offset="70%" stop-color="#000000" stop-opacity="1"></stop>
</linearGradient></defs><g transform="translate(600, 900)">
<path d="M-297.5 0C-283.4 -34.2 -269.4 -68.3 -257.8 -106.8C-246.1 -145.2 -236.9 -188 -210.3 -210.3C-183.7 -232.7 -139.7 -234.6 -101.8 -245.8C-63.8 -256.9 -31.9 -277.2 0 -297.5L0 0Z" fill="#2F2235">
</path></g><g transform="translate(0, 0)">
<path d="M297.5 0C271.5 31.5 245.5 63 230 95.3C214.6 127.5 209.7 160.6 193 193C176.4 225.5 148 257.5 113.8 274.8C79.7 292.1 39.8 294.8 0 297.5L0 0Z" fill="#2F2235">
</path></g></svg>